<?xml version="1.0" standalone="no"?>
<!DOCTYPE svg PUBLIC "-//W3C//DTD SVG 20010904//EN"
 "http://www.w3.org/TR/2001/REC-SVG-20010904/DTD/svg10.dtd">
<svg version="1.0" xmlns="http://www.w3.org/2000/svg"
 width="216.000000pt" height="216.000000pt" viewBox="0 0 216.000000 216.000000"
 preserveAspectRatio="xMidYMid meet">

<g transform="translate(0.000000,216.000000) scale(0.100000,-0.100000)"
fill="#000000" stroke="none">
<path d="M210 1075 l0 -655 870 0 870 0 0 188 -1 187 -19 -36 c-72 -135 -337
-238 -683 -264 l-88 -7 3 134 3 133 55 3 c389 20 710 158 726 313 l5 44 -20
-36 c-69 -124 -288 -217 -601 -254 -191 -23 -170 -38 -170 120 l0 135 48 0
c26 0 106 9 177 19 282 42 477 127 540 235 24 41 25 49 25 219 l0 177 -870 0
-870 0 0 -655z m693 513 c-100 -104 -95 -273 12 -366 l37 -33 -73 6 c-275 23
-499 118 -499 211 0 78 176 163 405 194 50 6 97 13 105 15 40 8 42 3 13 -27z
m511 6 c215 -36 366 -114 366 -190 0 -47 -68 -103 -170 -142 -70 -26 -232 -59
-329 -67 l-73 -6 37 33 c107 93 112 262 12 366 l-31 32 49 -6 c28 -3 90 -12
139 -20z m-254 -26 c132 -67 132 -249 0 -315 -56 -29 -104 -29 -160 0 -72 36
-111 113 -96 191 15 78 97 146 176 146 20 0 56 -10 80 -22z m-502 -449 c53
-11 150 -26 215 -32 l118 -12 2 -134 2 -133 -75 7 c-187 16 -374 56 -480 101
l-60 27 0 132 0 132 91 -34 c50 -19 134 -43 187 -54z m-217 -258 c111 -49 327
-94 497 -103 l53 -3 2 -133 2 -134 -75 7 c-215 18 -366 50 -482 102 l-58 26 0
128 c0 71 4 129 9 129 5 0 28 -9 52 -19z"/>
<path d="M995 1509 c-19 -17 -40 -48 -46 -68 -10 -33 -8 -45 9 -85 18 -39 29
-50 68 -68 40 -17 52 -19 85 -9 55 17 99 71 99 124 0 116 -130 180 -215 106z"/>
</g>
</svg>
